<?xml version="1.0" encoding="UTF-8"?>
<svg xmlns="http://www.w3.org/2000/svg" version="1.1" xmlns:xlink="http://www.w3.org/1999/xlink" viewBox="0 0 1920 1080">
  <!-- Generator: Adobe Illustrator 29.4.0, SVG Export Plug-In . SVG Version: 2.1.0 Build 152)  -->
  <defs>
    <style>
      .st0 {
        fill: url(#linear-gradient2);
      }

      .st1 {
        fill: url(#radial-gradient3);
      }

      .st1, .st2, .st3, .st4, .st5, .st6, .st7, .st8, .st9, .st10, .st11, .st12, .st13, .st14 {
        stroke-miterlimit: 10;
      }

      .st1, .st7, .st9, .st10, .st11 {
        stroke: #000;
      }

      .st1, .st7, .st9, .st10, .st14 {
        stroke-width: 5px;
      }

      .st2 {
        stroke: url(#linear-gradient);
      }

      .st2, .st15, .st3, .st16, .st4, .st6, .st11 {
        fill: none;
      }

      .st2, .st16, .st17, .st18, .st19 {
        display: none;
      }

      .st2, .st12 {
        stroke-width: 25px;
      }

      .st3 {
        stroke-width: 22px;
      }

      .st3, .st16 {
        stroke: #fff;
      }

      .st16 {
        stroke-miterlimit: 10;
        stroke-width: 22px;
      }

      .st20 {
        stroke-miterlimit: 10;
        stroke-width: 1px;
      }

      .st20, .st21, .st22, .st8, .st23, .st24 {
        isolation: isolate;
      }

      .st20, .st21, .st8, .st24 {
        fill: #afffe0;
        opacity: .75;
        stroke: #d7f0ff;
      }

      .st21 {
        stroke-miterlimit: 10;
        stroke-width: 1px;
      }

      .st4 {
        stroke-width: 30px;
      }

      .st4, .st5, .st6, .st13 {
        stroke: #040094;
      }

      .st5 {
        stroke-width: 2px;
      }

      .st5, .st25 {
        fill: #040094;
      }

      .st6 {
        stroke-width: 45px;
      }

      .st7 {
        fill: #fff;
      }

      .st9 {
        fill: url(#radial-gradient1);
      }

      .st10 {
        fill: url(#radial-gradient2);
      }

      .st11 {
        stroke-width: 4px;
      }

      .st12 {
        fill: #f5c4ff;
      }

      .st12, .st14 {
        stroke: #d18edd;
      }

      .st13 {
        fill: url(#linear-gradient1);
      }

      .st18 {
        fill: url(#radial-gradient);
      }

      .st26 {
        fill: url(#radial-gradient4);
      }

      .st19 {
        fill: url(#linear-gradient3);
      }

      .st27 {
        fill: #d18edd;
      }

      .st14 {
        fill: url(#linear-gradient4);
      }

      .st23 {
        fill: #8f84f4;
        font-family: BerlinSansFB-Reg, 'Berlin Sans FB';
        font-size: 110px;
        letter-spacing: .02em;
      }

      .st24 {
        stroke-miterlimit: 10;
        stroke-width: 1px;
      }
    </style>
    <linearGradient id="linear-gradient" x1="407.32" y1="339.27" x2="631.78" y2="339.27" gradientTransform="translate(88.26 1119.62) rotate(-7.49) scale(.93 -.93) skewX(.45)" gradientUnits="userSpaceOnUse">
      <stop offset="0" stop-color="#666"/>
      <stop offset=".65" stop-color="#868686"/>
      <stop offset="1" stop-color="#999"/>
    </linearGradient>
    <radialGradient id="radial-gradient" cx="507.66" cy="270.83" fx="507.66" fy="270.83" r="89.5" gradientTransform="translate(0 1080) scale(1 -1)" gradientUnits="userSpaceOnUse">
      <stop offset="0" stop-color="#999"/>
      <stop offset="1" stop-color="#666"/>
    </radialGradient>
    <linearGradient id="linear-gradient1" x1="428.5" y1="371" x2="1351.5" y2="371" gradientTransform="translate(0 1080) scale(1 -1)" gradientUnits="userSpaceOnUse">
      <stop offset="0" stop-color="#666"/>
      <stop offset=".65" stop-color="#868686"/>
      <stop offset="1" stop-color="#999"/>
    </linearGradient>
    <linearGradient id="linear-gradient2" x1="1295.5" y1="640.5" x2="1343.5" y2="640.5" gradientTransform="translate(0 1080) scale(1 -1)" gradientUnits="userSpaceOnUse">
      <stop offset="0" stop-color="#666"/>
      <stop offset=".65" stop-color="#868686"/>
      <stop offset="1" stop-color="#999"/>
    </linearGradient>
    <radialGradient id="radial-gradient1" cx="918.89" cy="607.85" fx="918.89" fy="607.85" r="333.38" gradientTransform="translate(0 906.01) scale(1 -.71)" gradientUnits="userSpaceOnUse">
      <stop offset="0" stop-color="#d2b2ff"/>
      <stop offset=".45" stop-color="#d0b1ff"/>
      <stop offset=".68" stop-color="#c8acff"/>
      <stop offset=".87" stop-color="#baa4ff"/>
      <stop offset="1" stop-color="#ac9cff"/>
    </radialGradient>
    <linearGradient id="linear-gradient3" x1="1158.17" y1="991.99" x2="1445.96" y2="991.99" gradientTransform="translate(-301.34 1106.32) rotate(-.97) scale(1.24 -1) skewX(1.75)" gradientUnits="userSpaceOnUse">
      <stop offset="0" stop-color="#666"/>
      <stop offset=".65" stop-color="#868686"/>
      <stop offset="1" stop-color="#999"/>
    </linearGradient>
    <linearGradient id="linear-gradient4" x1="697.4" y1="440.99" x2="1126.67" y2="574.87" gradientTransform="translate(0 1080) scale(1 -1)" gradientUnits="userSpaceOnUse">
      <stop offset="0" stop-color="#f5c4ff"/>
      <stop offset=".08" stop-color="#f2bfff"/>
      <stop offset=".36" stop-color="#ebafff"/>
      <stop offset=".59" stop-color="#e8aaff"/>
      <stop offset=".68" stop-color="#e8a7ff"/>
      <stop offset=".99" stop-color="#e8a2ff"/>
    </linearGradient>
    <radialGradient id="radial-gradient2" cx="1227.05" cy="914.21" fx="1227.05" fy="914.21" r="35.88" gradientTransform="translate(0 977.62) scale(1 -.88)" gradientUnits="userSpaceOnUse">
      <stop offset="0" stop-color="#d2b2ff"/>
      <stop offset=".45" stop-color="#d0b1ff"/>
      <stop offset=".68" stop-color="#c8acff"/>
      <stop offset=".87" stop-color="#baa4ff"/>
      <stop offset="1" stop-color="#ac9cff"/>
    </radialGradient>
    <radialGradient id="radial-gradient3" cx="1132.16" cy="912.61" fx="1132.16" fy="912.61" r="35.88" gradientTransform="translate(0 977.62) scale(1 -.88)" gradientUnits="userSpaceOnUse">
      <stop offset="0" stop-color="#d2b2ff"/>
      <stop offset=".45" stop-color="#d0b1ff"/>
      <stop offset=".68" stop-color="#c8acff"/>
      <stop offset=".87" stop-color="#baa4ff"/>
      <stop offset="1" stop-color="#ac9cff"/>
    </radialGradient>
    <radialGradient id="radial-gradient4" cx="1344.54" cy="282.4" fx="1344.54" fy="282.4" r="89.5" gradientTransform="translate(8.1 1105.2) rotate(-1.58) scale(1 -1)" gradientUnits="userSpaceOnUse">
      <stop offset="0" stop-color="#999"/>
      <stop offset="1" stop-color="#666"/>
    </radialGradient>
  </defs>
  <g id="Layer_1">
    <g id="Layer_4" class="st17">
      <ellipse class="st25" cx="1106" cy="560.5" rx="864" ry="525.5"/>
    </g>
    <g id="Layer_5">
      <path class="st6" d="M607,746c187.6-.34,375.2-.67,562.8-1.01,55.16-74.88,110.33-149.76,165.49-224.64"/>
      <path class="st2" d="M424,708.92c48.15-27.83,106.04-27.33,148.84,1.64,45.46,30.77,55.01,80.85,56.73,91.05"/>
      <circle class="st18" cx="507.66" cy="809.17" r="89.5"/>
      <circle class="st16" cx="507.68" cy="809.2" r="57.5"/>
      <line class="st4" x1="1320.5" y1="329.5" x2="1339.5" y2="682.5"/>
      <line class="st4" x1="1251.5" y1="328.5" x2="1328.5" y2="328.5"/>
      <circle class="st25" cx="1325" cy="324" r="28"/>
      <line class="st6" x1="1331.5" y1="521.5" x2="1340.01" y2="684"/>
      <path class="st5" d="M1352.5,520.5c-4.33-23-8.67-46-13-69,1.25,10.29,2.08,25.09-.5,42.5-3.43,23.09-11.04,38.46-7,41,2,1.26,7.03-.53,20.5-14.5Z"/>
      <rect class="st15" x="606.74" y="785.72" width="544.82" height="130.24"/>
    </g>
    <g id="Layer_2">
      <g id="Layer_3" class="st17">
        <path class="st13" d="M1351.5,676.5h-771c-50.67,21.67-101.33,43.33-152,65,262.33-1.33,524.67-2.67,787-4,45.33-20.33,90.67-40.67,136-61Z"/>
        <rect class="st0" x="1295.5" y="102.5" width="48" height="674"/>
      </g>
      <path class="st11" d="M1200.76,651.67c-9.32,12.83-19.49,22.42-29.11,25.2,8.84-5.97,19.54-14.39,29.11-25.2Z"/>
      <path class="st9" d="M1227.22,456.09c3.8,23.26,6.09,41.86,6.78,47.41,4.48,36.29,4.3,60.59-3.5,87-1.87,6.32-4.22,12.92-6.95,19.54-6.08,14.74-14.04,29.57-22.75,41.57-.01.02-.03.04-.04.06-9.57,10.81-20.27,19.23-29.11,25.2-9.14,6.17-16.29,9.73-18.15,10.63-16.48,7.99-29.88,10.1-56,14-65.84,9.83-74.91-3.91-140,4-34.1,4.14-46.65,9.74-73,5-25.32-4.55-28.08-12.3-50-13-32.12-1.03-37.45,15.24-68,13-24.16-1.77-24.61-12.23-49-12-23.17.21-24.94,9.67-47,8-17.52-1.32-20.46-7.59-44-10-19.16-1.96-26.56,1.23-28-2-3.31-7.46,30.82-36.58,72-49,39.32-11.86,72.69-4.75,89-2,106.1,17.89,222.9-19.81,283-71,30.14-25.67,50.75-59.31,57-70,15.12-25.87,17.99-40.35,19-49,2.15-18.42-3.88-18.6-3-46,.6-18.6,3.01-24.07,6-61,.15-1.85-.04.39,2-29,2.46-35.47,2.62-37.18,2-42-2.52-19.47-9.65-26.37-5-33,4.55-6.49,17.54-8.14,23-3,6.8,6.4-.95,20.65-4,40-5.95,37.79,2.17,57.37,6.21,59.01,2.17.88,4.22.55,4.22.55,2.5-.41,4.12-2.11,4.57-2.56,3.27-3.2,15.76-9.43,27-8,10.08,1.28,20.68,8.92,23,13,.22.39,1.09,2.03,2.08,1.95,1.09-.09,1.79-2.23,2.18-3.82.38-2.03.99-5.23,1.74-9.13,6.77-35.46,7.65-38.19,8-46,.38-8.52.77-17.09-2-28-3.66-14.41-9.54-20.01-7-23,3.9-4.58,24,1.26,28,13,2,5.86-.79,10.95-3,17-3.16,8.64-3.15,21.21-3,46,.3,49.14.44,73.72,5,92,1.61,6.45,5.26,19.65,1,35-1.6,5.74-5.82,17.28-10.28,19.59h0Z"/>
      <path class="st11" d="M1223.55,610.04c-.59,2.34-1.27,4.66-2.05,6.96-4.57,13.42-12.17,24.97-20.7,34.61,8.71-12,16.67-26.83,22.75-41.57Z"/>
      <path d="M1153.27,381.78c3.84,11.87,11.46,22.11,22.04,28.57,10.46,6.59,23.09,8.74,35.42,7.25-5.92,2.42-12.55,3.08-19.04,2.48-19.51-1.73-37.33-18.46-38.42-38.3h0Z"/>
      <path d="M1143.84,389.88c1.37-2.73,3.51-5.14,6.06-6.87,1.29-.88,2.61-1.99,4.24-2.15,1.6-.19,3.28-.05,4.84.95l.03.4c-2.46,2.25-4.65,2.93-7.61,3.63-2.62,1-5.07,2.45-7.25,4.29.01-.01-.31-.25-.31-.25h0Z"/>
      <path d="M1163.5,451.5c13.88,9.17,28.18,11.78,44,6-12.73,11.56-34.52,7.95-44-6h0Z"/>
      <polygon class="st19" points="1159.5 124.33 1511.97 93.5 1508.05 48.67 1155.58 79.51 1159.5 124.33"/>
    </g>
    <g id="Layer_11">
      <path class="st14" d="M1076.5,541.5c-9.54,11.95-44.9,54.16-109,83-11.29,5.08-34.35,14.75-70,22-103.73,21.09-224.37,5.76-227-19-1.59-14.97,40.13-32.03,64-39,3.13-.91,6.19-1.72,9.18-2.43,32.8,16.8,71.02,26.43,111.82,26.43,110.48,0,202.04-70.63,218.39-162.87,2.63.91,10.17,3.96,20.61,3.87,14.73-.13,21.04-6.44,24.15-4.15,7.12,5.24-8.99,50.62-42.15,92.15Z"/>
      <path class="st12" d="M1076.5,420c0,10.08-.89,19.97-2.61,29.63-16.35,92.24-107.91,162.87-218.39,162.87-40.8,0-79.02-9.63-111.82-26.43-65.33-33.44-109.18-95.3-109.18-166.07,0-106.31,98.95-192.5,221-192.5s221,86.19,221,192.5Z"/>
      <path class="st8" d="M719.1,348.98c6.69,22.21-2.02,44.48-19.47,49.74-20.25,6.1-43.49-15.01-43.72-30.69-.03-1.7,2.18-6.64,6.6-16.52,4.49-10.04,9.21-19.43,17-29,3.72-4.57,4.78-5.05,5.39-5.27,9.88-3.61,28.55,12.99,34.2,31.74h0Z"/>
      <ellipse class="st7" cx="1226" cy="194" rx="28.5" ry="57.5"/>
      <ellipse class="st7" cx="1132.5" cy="195.5" rx="29" ry="56"/>
      <path d="M1157,218.5c0,8.83-8.23,17.47-18.4,17.5-6.65.02-13-3.65-16.6-9.33,4.49-2.85,8.97-5.7,13.46-8.56-4.3-2.72-8.61-5.44-12.91-8.16.31-.47,6.14-8.9,16.06-8.95,10.08-.05,18.39,8.62,18.39,17.5Z"/>
      <path d="M1251,218.42c0,9.27-8.06,18.33-18.02,18.36-6.51.02-12.73-3.83-16.26-9.79,4.39-2.99,8.79-5.98,13.18-8.97-4.22-2.85-8.43-5.71-12.65-8.56.31-.49,6.02-9.34,15.72-9.39,9.89-.06,18.03,9.03,18.03,18.35h0Z"/>
      <path class="st27" d="M894.57,607.83c36.56-18.63,66.71-51.24,77.6-91.1,7.74-32.12,5.47-67.6-9.6-97.24-3.71-7.31-8.3-14.33-13.34-20.77-10.44-12.61-23.59-23.9-37.59-32.2-20.24-11.95-42.16-17.56-65.48-14.94-22.87,3.66-45.73,13.01-63,28.52-10.97,9.93-19.07,22.96-23.23,37.15-10.01,34.31,1.99,74.96,30.06,97.34,21.34,16.73,53.82,24.92,77.3,10.77,21.26-11.69,35.64-30.6,28.23-55.6-3.82-12.74-12.88-24.74-25.11-30.59-3.45-1.64-6.97-2.79-10.81-3.42-13.1-2.5-44.79,1.67-40.35,20.69,1.71,7.16,6.88,13.42,12.25,18.39,1.9,1.83,3.99,3.47,6.12,5.1l-1.26,2.16c-13.34-7.61-30.81-24.1-21.14-40.55,8.89-13.57,30.01-18.02,45.27-16.99,5.55.39,11.13,1.79,16.25,3.96l3.81,1.77,3.63,2.11c21.25,13.29,33.83,40.24,28.52,65.01-4.77,22.14-22.86,38.82-42.38,48.79-30.46,15.02-67.7,6.13-94.13-13.23-43.58-32.62-57.59-98.17-30.56-145.54,11.65-20.54,30.61-36.2,51.85-46.13,17.48-7.97,36.34-13.76,55.66-14.09,24.84-.62,49.54,7.23,70.35,20.58,37.84,23.96,63.96,62.39,68.24,107.36,2.17,21.82.13,44.07-6.48,65-7.19,20.71-19.31,39.68-34.99,54.99-15.63,15.28-34.35,27.39-54.84,35.05.01-.01-.85-2.35-.85-2.35h0Z"/>
      <path class="st10" d="M1196.5,189.72c-.14,5.33.4,9.86,1,13.24,6.06-1.83,16.25-4.16,29-3.53,13.7.68,24.14,4.47,30,7.06.74-4.19,1.39-9.95,1-16.77-1.39-24.3-15.6-54.66-30.5-54.72-14.82-.06-29.86,29.88-30.5,54.72Z"/>
      <path class="st1" d="M1162.71,191.13c.14,5.33-.4,9.86-1,13.24-6.06-1.83-16.25-4.16-29-3.53-13.7.68-24.14,4.47-30,7.06-.74-4.19-1.39-9.95-1-16.77,1.39-24.3,15.6-54.66,30.5-54.72,14.82-.05,29.85,29.88,30.5,54.72Z"/>
      <ellipse class="st20" cx="910.48" cy="563.5" rx="31" ry="23" transform="translate(-32.77 1070.25) rotate(-60)"/>
      <path class="st8" d="M1054.5,472c-.33,2.57-1.91,7.75-4,12.5-1.11,2.52-2.47,5.61-4.31,8.02-5.1,6.7-14.6,9.14-21.19,8.98-13.86-.33-29.5-11.96-29.5-29.5,0-16.29,13.21-29.5,29.5-29.5,19.17,0,30.82,19.31,29.5,29.5Z"/>
      <path class="st8" d="M858.95,288.74c-10.46,16.58-30.11,22.98-43.89,14.28-13.78-8.69-16.47-29.18-6.01-45.76,1.35-2.14,6.71-11.93,17.01-15.18,3.24-1.02,6.45-1.24,11.44-1.58,5.98-.41,9.13.03,12,1,0,0,1.84.62,3.44,1.48,6.67,3.55,17.54,27.48,6.01,45.76Z"/>
      <path class="st8" d="M753.31,520.55c7.96,18.91.48,43.82-10.81,46.95-7.19,1.99-15.88-4.87-30-16-6.24-4.92-11.26-10.15-13-12-3.45-3.67-5.17-5.5-6-7-5.49-9.9,1.9-31.35,16.41-37.21,16.38-6.6,36.47,8.81,43.4,25.26Z"/>
      <path class="st8" d="M1024.5,328c-.63,14.05-11.66,35.5-29.5,35.5-16.29,0-29.5-15.89-29.5-35.5s13.21-35.5,29.5-35.5c5.39,0,9.28,1.79,9.28,1.79,2.28,1.14,3.46,2.42,8.22,7.21,6.9,6.95,6.52,6.4,7,7,5.56,6.91,5.15,16.24,5,19.5Z"/>
      <ellipse class="st24" cx="938.04" cy="439.04" rx="26.5" ry="30.5" transform="translate(-95.1 366.23) rotate(-21.05)"/>
      <ellipse class="st21" cx="803" cy="412.94" rx="26.5" ry="20.5" transform="translate(136.91 1022.57) rotate(-69.68)"/>
    </g>
  </g>
  <g id="Layer_21" data-name="Layer_2">
    <g class="st22">
      <g class="st22">
        <text class="st23" transform="translate(606.74 861.73)"><tspan x="0" y="0">Escargot</tspan></text>
      </g>
    </g>
    <circle class="st26" cx="1344.34" cy="785.83" r="89.5"/>
    <circle class="st3" cx="1344.34" cy="785.83" r="57.5"/>
  </g>
</svg>