<?xml version="1.0" encoding="UTF-8" standalone="no"?>
<svg
   version="1.1"
   viewBox="0 0 838.07965 783.46008"
   id="svg63"
   width="838.07965"
   height="783.46008"
   xmlns="http://www.w3.org/2000/svg"
   xmlns:svg="http://www.w3.org/2000/svg">
  <!-- Generator: Adobe Illustrator 29.4.0, SVG Export Plug-In . SVG Version: 2.1.0 Build 152)  -->
  <defs
     id="defs37">
    <style
       id="style1">
      .st0 {
        fill: url(#linear-gradient2);
      }

      .st1 {
        fill: url(#radial-gradient3);
      }

      .st1, .st2, .st3, .st4, .st5, .st6, .st7, .st8, .st9, .st10, .st11, .st12, .st13, .st14 {
        stroke-miterlimit: 10;
      }

      .st1, .st7, .st9, .st10, .st11 {
        stroke: #000;
      }

      .st1, .st7, .st9, .st10, .st14 {
        stroke-width: 5px;
      }

      .st2 {
        stroke: url(#linear-gradient);
      }

      .st2, .st15, .st3, .st16, .st4, .st6, .st11 {
        fill: none;
      }

      .st2, .st16, .st17, .st18, .st19 {
        display: none;
      }

      .st2, .st12 {
        stroke-width: 25px;
      }

      .st3 {
        stroke-width: 22px;
      }

      .st3, .st16 {
        stroke: #fff;
      }

      .st16 {
        stroke-miterlimit: 10;
        stroke-width: 22px;
      }

      .st20 {
        stroke-miterlimit: 10;
        stroke-width: 1px;
      }

      .st20, .st21, .st22, .st8, .st23, .st24 {
        isolation: isolate;
      }

      .st20, .st21, .st8, .st24 {
        fill: #afffe0;
        opacity: .75;
        stroke: #d7f0ff;
      }

      .st21 {
        stroke-miterlimit: 10;
        stroke-width: 1px;
      }

      .st4 {
        stroke-width: 30px;
      }

      .st4, .st5, .st6, .st13 {
        stroke: #040094;
      }

      .st5 {
        stroke-width: 2px;
      }

      .st5, .st25 {
        fill: #040094;
      }

      .st6 {
        stroke-width: 45px;
      }

      .st7 {
        fill: #fff;
      }

      .st9 {
        fill: url(#radial-gradient1);
      }

      .st10 {
        fill: url(#radial-gradient2);
      }

      .st11 {
        stroke-width: 4px;
      }

      .st12 {
        fill: #f5c4ff;
      }

      .st12, .st14 {
        stroke: #d18edd;
      }

      .st13 {
        fill: url(#linear-gradient1);
      }

      .st18 {
        fill: url(#radial-gradient);
      }

      .st26 {
        fill: url(#radial-gradient4);
      }

      .st19 {
        fill: url(#linear-gradient3);
      }

      .st27 {
        fill: #d18edd;
      }

      .st14 {
        fill: url(#linear-gradient4);
      }

      .st23 {
        fill: #8f84f4;
        font-family: BerlinSansFB-Reg, 'Berlin Sans FB';
        font-size: 110px;
        letter-spacing: .02em;
      }

      .st24 {
        stroke-miterlimit: 10;
        stroke-width: 1px;
      }
    </style>
    <linearGradient
       id="linear-gradient"
       x1="407.32001"
       y1="339.26999"
       x2="631.78003"
       y2="339.26999"
       gradientTransform="matrix(0.92206489,-0.12122843,-0.1139864,-0.92301704,88.26,1119.62)"
       gradientUnits="userSpaceOnUse">
      <stop
         offset="0"
         stop-color="#666"
         id="stop1" />
      <stop
         offset=".65"
         stop-color="#868686"
         id="stop2" />
      <stop
         offset="1"
         stop-color="#999"
         id="stop3" />
    </linearGradient>
    <radialGradient
       id="radial-gradient"
       cx="507.66"
       cy="270.82999"
       fx="507.66"
       fy="270.82999"
       r="89.5"
       gradientTransform="matrix(1,0,0,-1,0,1080)"
       gradientUnits="userSpaceOnUse">
      <stop
         offset="0"
         stop-color="#999"
         id="stop4" />
      <stop
         offset="1"
         stop-color="#666"
         id="stop5" />
    </radialGradient>
    <linearGradient
       id="linear-gradient1"
       x1="428.5"
       y1="371"
       x2="1351.5"
       y2="371"
       gradientTransform="matrix(1,0,0,-1,0,1080)"
       gradientUnits="userSpaceOnUse">
      <stop
         offset="0"
         stop-color="#666"
         id="stop6" />
      <stop
         offset=".65"
         stop-color="#868686"
         id="stop7" />
      <stop
         offset="1"
         stop-color="#999"
         id="stop8" />
    </linearGradient>
    <linearGradient
       id="linear-gradient2"
       x1="1295.5"
       y1="640.5"
       x2="1343.5"
       y2="640.5"
       gradientTransform="matrix(1,0,0,-1,0,1080)"
       gradientUnits="userSpaceOnUse">
      <stop
         offset="0"
         stop-color="#666"
         id="stop9" />
      <stop
         offset=".65"
         stop-color="#868686"
         id="stop10" />
      <stop
         offset="1"
         stop-color="#999"
         id="stop11" />
    </linearGradient>
    <radialGradient
       id="radial-gradient1"
       cx="918.89001"
       cy="607.84998"
       fx="918.89001"
       fy="607.84998"
       r="333.38"
       gradientTransform="matrix(1,0,0,-0.71,0,906.01)"
       gradientUnits="userSpaceOnUse">
      <stop
         offset="0"
         stop-color="#d2b2ff"
         id="stop12" />
      <stop
         offset=".45"
         stop-color="#d0b1ff"
         id="stop13" />
      <stop
         offset=".68"
         stop-color="#c8acff"
         id="stop14" />
      <stop
         offset=".87"
         stop-color="#baa4ff"
         id="stop15" />
      <stop
         offset="1"
         stop-color="#ac9cff"
         id="stop16" />
    </radialGradient>
    <linearGradient
       id="linear-gradient3"
       x1="1158.17"
       y1="991.98999"
       x2="1445.96"
       y2="991.98999"
       gradientTransform="matrix(1.2398223,-0.02099182,0.02095111,-1.0004981,-301.34,1106.32)"
       gradientUnits="userSpaceOnUse">
      <stop
         offset="0"
         stop-color="#666"
         id="stop17" />
      <stop
         offset=".65"
         stop-color="#868686"
         id="stop18" />
      <stop
         offset="1"
         stop-color="#999"
         id="stop19" />
    </linearGradient>
    <linearGradient
       id="linear-gradient4"
       x1="697.40002"
       y1="440.98999"
       x2="1126.67"
       y2="574.87"
       gradientTransform="matrix(1,0,0,-1,0,1080)"
       gradientUnits="userSpaceOnUse">
      <stop
         offset="0"
         stop-color="#f5c4ff"
         id="stop20" />
      <stop
         offset=".08"
         stop-color="#f2bfff"
         id="stop21" />
      <stop
         offset=".36"
         stop-color="#ebafff"
         id="stop22" />
      <stop
         offset=".59"
         stop-color="#e8aaff"
         id="stop23" />
      <stop
         offset=".68"
         stop-color="#e8a7ff"
         id="stop24" />
      <stop
         offset=".99"
         stop-color="#e8a2ff"
         id="stop25" />
    </linearGradient>
    <radialGradient
       id="radial-gradient2"
       cx="1227.05"
       cy="914.21002"
       fx="1227.05"
       fy="914.21002"
       r="35.880001"
       gradientTransform="matrix(1,0,0,-0.88,0,977.62)"
       gradientUnits="userSpaceOnUse">
      <stop
         offset="0"
         stop-color="#d2b2ff"
         id="stop26" />
      <stop
         offset=".45"
         stop-color="#d0b1ff"
         id="stop27" />
      <stop
         offset=".68"
         stop-color="#c8acff"
         id="stop28" />
      <stop
         offset=".87"
         stop-color="#baa4ff"
         id="stop29" />
      <stop
         offset="1"
         stop-color="#ac9cff"
         id="stop30" />
    </radialGradient>
    <radialGradient
       id="radial-gradient3"
       cx="1132.16"
       cy="912.60999"
       fx="1132.16"
       fy="912.60999"
       r="35.880001"
       gradientTransform="matrix(1,0,0,-0.88,0,977.62)"
       gradientUnits="userSpaceOnUse">
      <stop
         offset="0"
         stop-color="#d2b2ff"
         id="stop31" />
      <stop
         offset=".45"
         stop-color="#d0b1ff"
         id="stop32" />
      <stop
         offset=".68"
         stop-color="#c8acff"
         id="stop33" />
      <stop
         offset=".87"
         stop-color="#baa4ff"
         id="stop34" />
      <stop
         offset="1"
         stop-color="#ac9cff"
         id="stop35" />
    </radialGradient>
    <radialGradient
       id="radial-gradient4"
       cx="1344.54"
       cy="282.39999"
       fx="1344.54"
       fy="282.39999"
       r="89.5"
       gradientTransform="matrix(0.9996198,-0.02757271,-0.02757271,-0.9996198,8.1,1105.2)"
       gradientUnits="userSpaceOnUse">
      <stop
         offset="0"
         stop-color="#999"
         id="stop36" />
      <stop
         offset="1"
         stop-color="#666"
         id="stop37" />
    </radialGradient>
  </defs>
  <g
     id="Layer_1"
     transform="translate(-595.76031,-132.49991)">
    <g
       id="Layer_4"
       class="st17">
      <ellipse
         class="st25"
         cx="1106"
         cy="560.5"
         rx="864"
         ry="525.5"
         id="ellipse37" />
    </g>
    <g
       id="Layer_5">
      <path
         class="st6"
         d="m 607,746 c 187.6,-0.34 375.2,-0.67 562.8,-1.01 55.16,-74.88 110.33,-149.76 165.49,-224.64"
         id="path37" />
      <path
         class="st2"
         d="m 424,708.92 c 48.15,-27.83 106.04,-27.33 148.84,1.64 45.46,30.77 55.01,80.85 56.73,91.05"
         id="path38"
         style="stroke:url(#linear-gradient)" />
      <circle
         class="st18"
         cx="507.66"
         cy="809.16998"
         r="89.5"
         id="circle38"
         style="fill:url(#radial-gradient)" />
      <circle
         class="st16"
         cx="507.67999"
         cy="809.20001"
         r="57.5"
         id="circle39" />
      <line
         class="st4"
         x1="1320.5"
         y1="329.5"
         x2="1339.5"
         y2="682.5"
         id="line39" />
      <line
         class="st4"
         x1="1251.5"
         y1="328.5"
         x2="1328.5"
         y2="328.5"
         id="line40" />
      <circle
         class="st25"
         cx="1325"
         cy="324"
         r="28"
         id="circle40" />
      <line
         class="st6"
         x1="1331.5"
         y1="521.5"
         x2="1340.01"
         y2="684"
         id="line41" />
      <path
         class="st5"
         d="m 1352.5,520.5 c -4.33,-23 -8.67,-46 -13,-69 1.25,10.29 2.08,25.09 -0.5,42.5 -3.43,23.09 -11.04,38.46 -7,41 2,1.26 7.03,-0.53 20.5,-14.5 z"
         id="path41" />
      <rect
         class="st15"
         x="606.73999"
         y="785.71997"
         width="544.82001"
         height="130.24001"
         id="rect41" />
    </g>
    <g
       id="Layer_2">
      <g
         id="Layer_3"
         class="st17">
        <path
           class="st13"
           d="m 1351.5,676.5 h -771 c -50.67,21.67 -101.33,43.33 -152,65 262.33,-1.33 524.67,-2.67 787,-4 45.33,-20.33 90.67,-40.67 136,-61 z"
           id="path42"
           style="fill:url(#linear-gradient1)" />
        <rect
           class="st0"
           x="1295.5"
           y="102.5"
           width="48"
           height="674"
           id="rect42"
           style="fill:url(#linear-gradient2)" />
      </g>
      <path
         class="st11"
         d="m 1200.76,651.67 c -9.32,12.83 -19.49,22.42 -29.11,25.2 8.84,-5.97 19.54,-14.39 29.11,-25.2 z"
         id="path43" />
      <path
         class="st9"
         d="m 1227.22,456.09 c 3.8,23.26 6.09,41.86 6.78,47.41 4.48,36.29 4.3,60.59 -3.5,87 -1.87,6.32 -4.22,12.92 -6.95,19.54 -6.08,14.74 -14.04,29.57 -22.75,41.57 -0.01,0.02 -0.03,0.04 -0.04,0.06 -9.57,10.81 -20.27,19.23 -29.11,25.2 -9.14,6.17 -16.29,9.73 -18.15,10.63 -16.48,7.99 -29.88,10.1 -56,14 -65.84,9.83 -74.91,-3.91 -140,4 -34.1,4.14 -46.65,9.74 -73,5 -25.32,-4.55 -28.08,-12.3 -50,-13 -32.12,-1.03 -37.45,15.24 -68,13 -24.16,-1.77 -24.61,-12.23 -49,-12 -23.17,0.21 -24.94,9.67 -47,8 -17.52,-1.32 -20.46,-7.59 -44,-10 -19.16,-1.96 -26.56,1.23 -28,-2 -3.31,-7.46 30.82,-36.58 72,-49 39.32,-11.86 72.69,-4.75 89,-2 106.1,17.89 222.9,-19.81 283,-71 30.14,-25.67 50.75,-59.31 57,-70 15.12,-25.87 17.99,-40.35 19,-49 2.15,-18.42 -3.88,-18.6 -3,-46 0.6,-18.6 3.01,-24.07 6,-61 0.15,-1.85 -0.04,0.39 2,-29 2.46,-35.47 2.62,-37.18 2,-42 -2.52,-19.47 -9.65,-26.37 -5,-33 4.55,-6.49 17.54,-8.14 23,-3 6.8,6.4 -0.95,20.65 -4,40 -5.95,37.79 2.17,57.37 6.21,59.01 2.17,0.88 4.22,0.55 4.22,0.55 2.5,-0.41 4.12,-2.11 4.57,-2.56 3.27,-3.2 15.76,-9.43 27,-8 10.08,1.28 20.68,8.92 23,13 0.22,0.39 1.09,2.03 2.08,1.95 1.09,-0.09 1.79,-2.23 2.18,-3.82 0.38,-2.03 0.99,-5.23 1.74,-9.13 6.77,-35.46 7.65,-38.19 8,-46 0.38,-8.52 0.77,-17.09 -2,-28 -3.66,-14.41 -9.54,-20.01 -7,-23 3.9,-4.58 24,1.26 28,13 2,5.86 -0.79,10.95 -3,17 -3.16,8.64 -3.15,21.21 -3,46 0.3,49.14 0.44,73.72 5,92 1.61,6.45 5.26,19.65 1,35 -1.6,5.74 -5.82,17.28 -10.28,19.59 z"
         id="path44"
         style="fill:url(#radial-gradient1)" />
      <path
         class="st11"
         d="m 1223.55,610.04 c -0.59,2.34 -1.27,4.66 -2.05,6.96 -4.57,13.42 -12.17,24.97 -20.7,34.61 8.71,-12 16.67,-26.83 22.75,-41.57 z"
         id="path45" />
      <path
         d="m 1153.27,381.78 c 3.84,11.87 11.46,22.11 22.04,28.57 10.46,6.59 23.09,8.74 35.42,7.25 -5.92,2.42 -12.55,3.08 -19.04,2.48 -19.51,-1.73 -37.33,-18.46 -38.42,-38.3 z"
         id="path46" />
      <path
         d="m 1143.84,389.88 c 1.37,-2.73 3.51,-5.14 6.06,-6.87 1.29,-0.88 2.61,-1.99 4.24,-2.15 1.6,-0.19 3.28,-0.05 4.84,0.95 l 0.03,0.4 c -2.46,2.25 -4.65,2.93 -7.61,3.63 -2.62,1 -5.07,2.45 -7.25,4.29 0.01,-0.01 -0.31,-0.25 -0.31,-0.25 z"
         id="path47" />
      <path
         d="m 1163.5,451.5 c 13.88,9.17 28.18,11.78 44,6 -12.73,11.56 -34.52,7.95 -44,-6 z"
         id="path48" />
      <polygon
         class="st19"
         points="1508.05,48.67 1155.58,79.51 1159.5,124.33 1511.97,93.5 "
         id="polygon48"
         style="fill:url(#linear-gradient3)" />
    </g>
    <g
       id="Layer_11">
      <path
         class="st14"
         d="m 1076.5,541.5 c -9.54,11.95 -44.9,54.16 -109,83 -11.29,5.08 -34.35,14.75 -70,22 -103.73,21.09 -224.37,5.76 -227,-19 -1.59,-14.97 40.13,-32.03 64,-39 3.13,-0.91 6.19,-1.72 9.18,-2.43 32.8,16.8 71.02,26.43 111.82,26.43 110.48,0 202.04,-70.63 218.39,-162.87 2.63,0.91 10.17,3.96 20.61,3.87 14.73,-0.13 21.04,-6.44 24.15,-4.15 7.12,5.24 -8.99,50.62 -42.15,92.15 z"
         id="path49"
         style="fill:url(#linear-gradient4)" />
      <path
         class="st12"
         d="m 1076.5,420 c 0,10.08 -0.89,19.97 -2.61,29.63 -16.35,92.24 -107.91,162.87 -218.39,162.87 -40.8,0 -79.02,-9.63 -111.82,-26.43 C 678.35,552.63 634.5,490.77 634.5,420 c 0,-106.31 98.95,-192.5 221,-192.5 122.05,0 221,86.19 221,192.5 z"
         id="path50" />
      <path
         class="st8"
         d="m 719.1,348.98 c 6.69,22.21 -2.02,44.48 -19.47,49.74 -20.25,6.1 -43.49,-15.01 -43.72,-30.69 -0.03,-1.7 2.18,-6.64 6.6,-16.52 4.49,-10.04 9.21,-19.43 17,-29 3.72,-4.57 4.78,-5.05 5.39,-5.27 9.88,-3.61 28.55,12.99 34.2,31.74 z"
         id="path51" />
      <ellipse
         class="st7"
         cx="1226"
         cy="194"
         rx="28.5"
         ry="57.5"
         id="ellipse51" />
      <ellipse
         class="st7"
         cx="1132.5"
         cy="195.5"
         rx="29"
         ry="56"
         id="ellipse52" />
      <path
         d="m 1157,218.5 c 0,8.83 -8.23,17.47 -18.4,17.5 -6.65,0.02 -13,-3.65 -16.6,-9.33 4.49,-2.85 8.97,-5.7 13.46,-8.56 -4.3,-2.72 -8.61,-5.44 -12.91,-8.16 0.31,-0.47 6.14,-8.9 16.06,-8.95 10.08,-0.05 18.39,8.62 18.39,17.5 z"
         id="path52" />
      <path
         d="m 1251,218.42 c 0,9.27 -8.06,18.33 -18.02,18.36 -6.51,0.02 -12.73,-3.83 -16.26,-9.79 4.39,-2.99 8.79,-5.98 13.18,-8.97 -4.22,-2.85 -8.43,-5.71 -12.65,-8.56 0.31,-0.49 6.02,-9.34 15.72,-9.39 9.89,-0.06 18.03,9.03 18.03,18.35 z"
         id="path53" />
      <path
         class="st27"
         d="m 894.57,607.83 c 36.56,-18.63 66.71,-51.24 77.6,-91.1 7.74,-32.12 5.47,-67.6 -9.6,-97.24 -3.71,-7.31 -8.3,-14.33 -13.34,-20.77 -10.44,-12.61 -23.59,-23.9 -37.59,-32.2 -20.24,-11.95 -42.16,-17.56 -65.48,-14.94 -22.87,3.66 -45.73,13.01 -63,28.52 -10.97,9.93 -19.07,22.96 -23.23,37.15 -10.01,34.31 1.99,74.96 30.06,97.34 21.34,16.73 53.82,24.92 77.3,10.77 21.26,-11.69 35.64,-30.6 28.23,-55.6 -3.82,-12.74 -12.88,-24.74 -25.11,-30.59 -3.45,-1.64 -6.97,-2.79 -10.81,-3.42 -13.1,-2.5 -44.79,1.67 -40.35,20.69 1.71,7.16 6.88,13.42 12.25,18.39 1.9,1.83 3.99,3.47 6.12,5.1 l -1.26,2.16 c -13.34,-7.61 -30.81,-24.1 -21.14,-40.55 8.89,-13.57 30.01,-18.02 45.27,-16.99 5.55,0.39 11.13,1.79 16.25,3.96 l 3.81,1.77 3.63,2.11 c 21.25,13.29 33.83,40.24 28.52,65.01 -4.77,22.14 -22.86,38.82 -42.38,48.79 -30.46,15.02 -67.7,6.13 -94.13,-13.23 -43.58,-32.62 -57.59,-98.17 -30.56,-145.54 11.65,-20.54 30.61,-36.2 51.85,-46.13 17.48,-7.97 36.34,-13.76 55.66,-14.09 24.84,-0.62 49.54,7.23 70.35,20.58 37.84,23.96 63.96,62.39 68.24,107.36 2.17,21.82 0.13,44.07 -6.48,65 -7.19,20.71 -19.31,39.68 -34.99,54.99 -15.63,15.28 -34.35,27.39 -54.84,35.05 0.01,-0.01 -0.85,-2.35 -0.85,-2.35 z"
         id="path54" />
      <path
         class="st10"
         d="m 1196.5,189.72 c -0.14,5.33 0.4,9.86 1,13.24 6.06,-1.83 16.25,-4.16 29,-3.53 13.7,0.68 24.14,4.47 30,7.06 0.74,-4.19 1.39,-9.95 1,-16.77 -1.39,-24.3 -15.6,-54.66 -30.5,-54.72 -14.82,-0.06 -29.86,29.88 -30.5,54.72 z"
         id="path55"
         style="fill:url(#radial-gradient2)" />
      <path
         class="st1"
         d="m 1162.71,191.13 c 0.14,5.33 -0.4,9.86 -1,13.24 -6.06,-1.83 -16.25,-4.16 -29,-3.53 -13.7,0.68 -24.14,4.47 -30,7.06 -0.74,-4.19 -1.39,-9.95 -1,-16.77 1.39,-24.3 15.6,-54.66 30.5,-54.72 14.82,-0.05 29.85,29.88 30.5,54.72 z"
         id="path56"
         style="fill:url(#radial-gradient3)" />
      <ellipse
         class="st20"
         cx="910.47998"
         cy="563.5"
         rx="31"
         ry="23"
         transform="rotate(-60,910.47869,563.50465)"
         id="ellipse56" />
      <path
         class="st8"
         d="m 1054.5,472 c -0.33,2.57 -1.91,7.75 -4,12.5 -1.11,2.52 -2.47,5.61 -4.31,8.02 -5.1,6.7 -14.6,9.14 -21.19,8.98 -13.86,-0.33 -29.5,-11.96 -29.5,-29.5 0,-16.29 13.21,-29.5 29.5,-29.5 19.17,0 30.82,19.31 29.5,29.5 z"
         id="path57" />
      <path
         class="st8"
         d="m 858.95,288.74 c -10.46,16.58 -30.11,22.98 -43.89,14.28 -13.78,-8.69 -16.47,-29.18 -6.01,-45.76 1.35,-2.14 6.71,-11.93 17.01,-15.18 3.24,-1.02 6.45,-1.24 11.44,-1.58 5.98,-0.41 9.13,0.03 12,1 0,0 1.84,0.62 3.44,1.48 6.67,3.55 17.54,27.48 6.01,45.76 z"
         id="path58" />
      <path
         class="st8"
         d="m 753.31,520.55 c 7.96,18.91 0.48,43.82 -10.81,46.95 -7.19,1.99 -15.88,-4.87 -30,-16 -6.24,-4.92 -11.26,-10.15 -13,-12 -3.45,-3.67 -5.17,-5.5 -6,-7 -5.49,-9.9 1.9,-31.35 16.41,-37.21 16.38,-6.6 36.47,8.81 43.4,25.26 z"
         id="path59" />
      <path
         class="st8"
         d="m 1024.5,328 c -0.63,14.05 -11.66,35.5 -29.5,35.5 -16.29,0 -29.5,-15.89 -29.5,-35.5 0,-19.61 13.21,-35.5 29.5,-35.5 5.39,0 9.28,1.79 9.28,1.79 2.28,1.14 3.46,2.42 8.22,7.21 6.9,6.95 6.52,6.4 7,7 5.56,6.91 5.15,16.24 5,19.5 z"
         id="path60" />
      <ellipse
         class="st24"
         cx="938.03998"
         cy="439.04001"
         rx="26.5"
         ry="30.5"
         transform="rotate(-21.05,938.04989,439.04857)"
         id="ellipse60" />
      <ellipse
         class="st21"
         cx="803"
         cy="412.94"
         rx="26.5"
         ry="20.5"
         transform="rotate(-69.68,803.00292,412.93774)"
         id="ellipse61" />
    </g>
  </g>
  <g
     id="Layer_21"
     data-name="Layer_2"
     transform="translate(-595.76031,-132.49991)">
    <g
       class="st22"
       id="g62">
      <g
         class="st22"
         id="g61">
        <text
           class="st23"
           transform="translate(606.74,861.73)"
           id="text61"><tspan
             x="0"
             y="0"
             id="tspan61">Escargot</tspan></text>
      </g>
    </g>
    <circle
       class="st26"
       cx="1344.34"
       cy="785.83002"
       r="89.5"
       id="circle62"
       style="fill:url(#radial-gradient4)" />
    <circle
       class="st3"
       cx="1344.34"
       cy="785.83002"
       r="57.5"
       id="circle63" />
  </g>
</svg>
